<svg width="334" height="84" viewBox="0 0 334 84" fill="none" xmlns="http://www.w3.org/2000/svg">
<path d="M90.9297 24.26V56.71C90.9297 65.29 88.693 71.9633 84.2197 76.73C79.7464 81.4233 73.3297 83.77 64.9697 83.77C55.9497 83.77 49.4597 80.7267 45.4997 74.64C43.4464 77.72 40.8064 80.03 37.5797 81.57C34.4264 83.0367 30.5764 83.77 26.0297 83.77C17.6697 83.77 11.253 81.4233 6.77969 76.73C2.37969 71.9633 0.179688 65.29 0.179688 56.71V24.26H13.9297V55.5C13.9297 61.0733 14.883 65.18 16.7897 67.82C18.7697 70.46 21.8864 71.78 26.1397 71.78C30.393 71.78 33.5464 70.46 35.5997 67.82C37.653 65.1067 38.6797 61 38.6797 55.5V24.26H52.4297V55.5C52.4297 61 53.4564 65.1067 55.5097 67.82C57.563 70.46 60.7164 71.78 64.9697 71.78C69.223 71.78 72.303 70.46 74.2097 67.82C76.1897 65.18 77.1797 61.0733 77.1797 55.5V24.26H90.9297Z" fill="#DFA775"/>
<path fill-rule="evenodd" clip-rule="evenodd" d="M159.291 83H146.201V75.41C143.928 78.1966 141.105 80.2867 137.731 81.68C134.431 83.0733 130.765 83.77 126.731 83.77C121.011 83.77 115.878 82.5233 111.331 80.03C106.858 77.5367 103.338 74.0166 100.771 69.47C98.2779 64.9233 97.0312 59.6433 97.0312 53.63C97.0312 47.6167 98.2779 42.3733 100.771 37.9C103.338 33.3533 106.858 29.8333 111.331 27.34C115.878 24.8467 121.011 23.6 126.731 23.6C130.545 23.6 134.028 24.26 137.181 25.58C140.408 26.9 143.195 28.8433 145.541 31.41V24.26H159.291V83ZM128.271 72C133.331 72 137.511 70.3133 140.811 66.94C144.111 63.5667 145.761 59.13 145.761 53.63C145.761 48.13 144.111 43.6933 140.811 40.32C137.511 36.9467 133.331 35.26 128.271 35.26C123.211 35.26 119.031 36.9467 115.731 40.32C112.505 43.6933 110.891 48.13 110.891 53.63C110.891 59.13 112.505 63.5667 115.731 66.94C119.031 70.3133 123.211 72 128.271 72Z" fill="#DFA775"/>
<path d="M192.791 11.72C186.998 11.72 184.101 14.8733 184.101 21.18V24.7H200.271V35.7H184.431V83H170.681V20.96C170.681 14.7266 172.515 9.77665 176.181 6.10998C179.848 2.44332 185.055 0.609985 191.801 0.609985C197.008 0.609985 201.115 1.67332 204.121 3.79998L200.271 14.14C198.071 12.5267 195.578 11.72 192.791 11.72Z" fill="#DFA775"/>
<path d="M232.13 11.72C226.337 11.72 223.44 14.8733 223.44 21.18V24.7H239.61V35.7H223.77V83H210.02V20.96C210.02 14.7266 211.853 9.77665 215.52 6.10998C219.187 2.44332 224.393 0.609985 231.14 0.609985C236.347 0.609985 240.453 1.67332 243.46 3.79998L239.61 14.14C237.41 12.5267 234.917 11.72 232.13 11.72Z" fill="#DFA775"/>
<path d="M254.08 78.82C257.527 82.12 262.293 83.77 268.38 83.77C271.313 83.77 274.063 83.2933 276.63 82.34L275.97 71.34C274.503 72.0733 272.853 72.44 271.02 72.44C265.52 72.44 262.77 69.5067 262.77 63.64V1.37998H249.02V64.63C249.02 70.7167 250.707 75.4466 254.08 78.82Z" fill="#DFA775"/>
<path fill-rule="evenodd" clip-rule="evenodd" d="M322.189 65.73C317.936 69.9833 312.619 72.11 306.239 72.11C301.912 72.11 298.209 71.23 295.129 69.47C292.049 67.71 289.812 65.1433 288.419 61.77L333.409 52.97C333.409 47.03 332.089 41.86 329.449 37.46C326.809 32.9867 323.216 29.5767 318.669 27.23C314.196 24.81 309.209 23.6 303.709 23.6C297.916 23.6 292.709 24.8833 288.089 27.45C283.542 30.0167 279.949 33.61 277.309 38.23C274.742 42.7767 273.459 47.91 273.459 53.63C273.459 59.4233 274.779 64.63 277.419 69.25C280.132 73.7967 283.946 77.3533 288.859 79.92C293.772 82.4866 299.456 83.77 305.909 83.77C310.969 83.77 315.516 82.9633 319.549 81.35C323.582 79.7366 326.882 77.3533 329.449 74.2L322.189 65.73ZM291.389 39.55C294.542 36.25 298.649 34.6 303.709 34.6C307.816 34.6 311.299 35.7 314.159 37.9C317.092 40.1 319.036 42.9967 319.989 46.59L286.769 52.97V52.86C286.769 47.2867 288.309 42.85 291.389 39.55Z" fill="#DFA775"/>
</svg>
